<svg width="65" height="94" viewBox="0 0 65 94" fill="none" xmlns="http://www.w3.org/2000/svg">
<path d="M58.656 77.808C60.576 77.808 62.0693 78.3413 63.136 79.408C64.2453 80.4747 64.8 81.8827 64.8 83.632V94H0.416V88.24C0.416 87.1307 0.650667 85.936 1.12 84.656C1.58933 83.3333 2.37867 82.1387 3.488 81.072L31.008 53.488C33.3547 51.1413 35.424 48.9013 37.216 46.768C39.008 44.592 40.5013 42.48 41.696 40.432C42.8907 38.3413 43.7867 36.2293 44.384 34.096C44.9813 31.9627 45.28 29.7227 45.28 27.376C45.28 23.2373 44.2133 20.1013 42.08 17.968C39.9467 15.792 36.9387 14.704 33.056 14.704C31.3493 14.704 29.7707 14.96 28.32 15.472C26.912 15.9413 25.632 16.6027 24.48 17.456C23.3707 18.3093 22.4107 19.312 21.6 20.464C20.7893 21.616 20.192 22.8747 19.808 24.24C19.04 26.3733 17.9947 27.8027 16.672 28.528C15.392 29.2107 13.5573 29.36 11.168 28.976L1.824 27.312C2.50667 22.7893 3.78667 18.8213 5.664 15.408C7.54133 11.9947 9.888 9.15733 12.704 6.896C15.52 4.63466 18.7413 2.94933 22.368 1.84C25.9947 0.687993 29.8987 0.111992 34.08 0.111992C38.4747 0.111992 42.464 0.773326 46.048 2.09599C49.6747 3.376 52.768 5.18933 55.328 7.536C57.888 9.84 59.872 12.6347 61.28 15.92C62.688 19.2053 63.392 22.832 63.392 26.8C63.392 30.2133 62.9013 33.3707 61.92 36.272C60.9387 39.1733 59.5947 41.9467 57.888 44.592C56.224 47.1947 54.2827 49.7333 52.064 52.208C49.8453 54.6827 47.4987 57.1787 45.024 59.696L25.312 79.856C27.488 79.216 29.6427 78.7253 31.776 78.384C33.9093 78 35.9147 77.808 37.792 77.808H58.656Z" fill="white"/>
</svg>
