<svg width="34" height="48" viewBox="0 0 34 48" fill="none" xmlns="http://www.w3.org/2000/svg">
<path d="M2.168 13.656C2.50933 11.3947 3.14933 9.41067 4.088 7.704C5.02667 5.99733 6.2 4.57866 7.608 3.448C9.016 2.31733 10.616 1.47467 12.408 0.919998C14.2213 0.343997 16.1733 0.0559959 18.264 0.0559959C20.4827 0.0559959 22.4667 0.375997 24.216 1.016C25.9867 1.63466 27.48 2.488 28.696 3.576C29.912 4.664 30.84 5.93333 31.48 7.384C32.1413 8.83466 32.472 10.392 32.472 12.056C32.472 13.528 32.312 14.8293 31.992 15.96C31.6933 17.0693 31.2347 18.04 30.616 18.872C30.0187 19.704 29.272 20.408 28.376 20.984C27.5013 21.56 26.488 22.04 25.336 22.424C30.6693 24.1733 33.336 27.7253 33.336 33.08C33.336 35.448 32.8987 37.5387 32.024 39.352C31.1493 41.144 29.976 42.648 28.504 43.864C27.032 45.08 25.3147 45.9973 23.352 46.616C21.4107 47.2133 19.3733 47.512 17.24 47.512C14.9787 47.512 12.984 47.256 11.256 46.744C9.528 46.232 8.00267 45.464 6.68 44.44C5.37867 43.416 4.25867 42.136 3.32 40.6C2.38133 39.0427 1.56 37.2293 0.856 35.16L4.76 33.56C5.784 33.1333 6.73333 33.016 7.608 33.208C8.504 33.4 9.144 33.8693 9.528 34.616C9.95467 35.4267 10.4027 36.1733 10.872 36.856C11.3627 37.5387 11.9067 38.136 12.504 38.648C13.1013 39.1387 13.7733 39.5227 14.52 39.8C15.288 40.0773 16.1627 40.216 17.144 40.216C18.3813 40.216 19.4587 40.0133 20.376 39.608C21.2933 39.2027 22.0613 38.68 22.68 38.04C23.2987 37.3787 23.7573 36.6427 24.056 35.832C24.376 35 24.536 34.1787 24.536 33.368C24.536 32.3013 24.44 31.3413 24.248 30.488C24.056 29.6133 23.608 28.8773 22.904 28.28C22.2213 27.6613 21.1973 27.192 19.832 26.872C18.488 26.5307 16.6533 26.36 14.328 26.36V20.152C16.2693 20.152 17.8587 19.992 19.096 19.672C20.3333 19.352 21.304 18.904 22.008 18.328C22.712 17.752 23.192 17.0587 23.448 16.248C23.7253 15.4373 23.864 14.552 23.864 13.592C23.864 11.5653 23.3307 10.0187 22.264 8.952C21.2187 7.88533 19.7253 7.352 17.784 7.352C16.9307 7.352 16.1413 7.48 15.416 7.736C14.712 7.97066 14.072 8.30133 13.496 8.728C12.9413 9.15467 12.4613 9.656 12.056 10.232C11.6507 10.808 11.352 11.4373 11.16 12.12C10.7547 13.1867 10.232 13.9013 9.592 14.264C8.952 14.6053 8.024 14.68 6.808 14.488L2.168 13.656Z" fill="white"/>
</svg>
