<svg width="32" height="48" viewBox="0 0 32 48" fill="none" xmlns="http://www.w3.org/2000/svg">
<path d="M11.536 17.208C12.496 17.016 13.4133 16.8773 14.288 16.792C15.184 16.7067 16.048 16.664 16.88 16.664C19.312 16.664 21.456 17.0373 23.312 17.784C25.1893 18.5093 26.7573 19.512 28.016 20.792C29.296 22.072 30.256 23.576 30.896 25.304C31.536 27.032 31.856 28.888 31.856 30.872C31.856 33.3467 31.4187 35.608 30.544 37.656C29.6693 39.6827 28.4533 41.432 26.896 42.904C25.36 44.3547 23.5147 45.4853 21.36 46.296C19.2267 47.1067 16.8907 47.512 14.352 47.512C12.88 47.512 11.472 47.352 10.128 47.032C8.784 46.7333 7.52533 46.328 6.352 45.816C5.2 45.2827 4.12267 44.6747 3.12 43.992C2.11733 43.3093 1.22133 42.5947 0.432 41.848L3.152 38.136C3.728 37.3467 4.47467 36.952 5.392 36.952C5.968 36.952 6.53333 37.1227 7.088 37.464C7.64267 37.8053 8.272 38.1893 8.976 38.616C9.68 39.0213 10.5013 39.3947 11.44 39.736C12.3787 40.0773 13.52 40.248 14.864 40.248C16.2507 40.248 17.456 40.024 18.48 39.576C19.504 39.1067 20.3467 38.4773 21.008 37.688C21.6907 36.8773 22.192 35.928 22.512 34.84C22.8533 33.7307 23.024 32.5467 23.024 31.288C23.024 28.8773 22.3307 27.0213 20.944 25.72C19.5787 24.3973 17.584 23.736 14.96 23.736C12.8053 23.736 10.64 24.1413 8.464 24.952L2.992 23.416L6.896 0.567997H30.192V4.28C30.192 4.89866 30.096 5.464 29.904 5.976C29.7333 6.46666 29.4347 6.904 29.008 7.288C28.6027 7.65066 28.0693 7.93866 27.408 8.152C26.768 8.344 25.9787 8.44 25.04 8.44H13.04L11.536 17.208Z" fill="white"/>
</svg>
