<svg width="154" height="207" viewBox="0 0 154 207" fill="none" xmlns="http://www.w3.org/2000/svg">
<g clip-path="url(#clip0_30_1086)">
<path d="M104.544 -0.146362H0.27005V207.151H153.739V49.0115C153.739 21.8638 131.716 -0.141928 104.548 -0.141928L104.544 -0.146362Z" fill="#3C3C3B"/>
<path d="M153.734 140.211H0.265625V183.149H153.734V140.211Z" fill="#5F708A"/>
<path d="M102.381 117.318H23.287V40.258H41.269V99.5314H57.2175V82.1265C60.3833 78.6482 63.398 75.334 66.5371 71.8779C78.494 87.0334 90.3844 102.105 102.381 117.318Z" fill="white"/>
<path d="M130.713 56.891C130.713 74.389 118.241 88.9811 101.698 92.2642C101.658 92.2642 101.613 92.2642 101.573 92.2687C100.397 90.9865 77.797 62.1262 77.1532 61.0703C84.8965 52.7693 92.6488 44.4506 100.405 36.1364L105.551 30.6172L105.836 30.3155H95.2018L87.9646 30.3111C78.3031 40.4887 68.6195 50.6841 58.7716 61.0481C58.332 61.5139 57.888 61.9753 57.4484 62.4412V20.3464H78.9425V20.3331C82.7076 20.3331 86.4772 20.3331 90.2379 20.3464C94.8244 20.3642 99.3044 20.83 103.598 21.9436C103.798 21.9968 103.997 22.0501 104.197 22.1078C104.433 22.1743 104.663 22.2364 104.89 22.3074C104.912 22.3118 104.93 22.3207 104.948 22.3207C105.165 22.3873 105.378 22.4494 105.587 22.5204C105.791 22.5869 105.991 22.649 106.191 22.72C106.475 22.8132 106.75 22.9063 107.026 23.0084C120.843 28.0661 130.709 41.3228 130.709 56.8865L130.713 56.891Z" fill="white"/>
<path d="M78.9425 20.342V20.3546H58.9935C65.6447 20.3504 72.2913 20.342 78.9425 20.342Z" fill="white"/>
<path d="M105.836 30.3288L105.551 30.6305C105.458 30.4309 105.312 30.3554 105.152 30.3288H105.836Z" fill="white"/>
<path d="M15.6147 150.486H20.3922V160.455C21.8662 158.734 26.4661 153.698 29.2899 150.486H35.0797L26.0976 159.772L35.4083 172.825H29.6096L22.7498 162.904L20.3922 165.154V172.825H15.6147V150.491V150.486Z" fill="white"/>
<path d="M50.2379 150.486H59.4864C64.2372 150.486 67.4607 153.157 67.4607 157.403C67.4607 162.257 63.7843 164.479 59.3754 164.479H55.0775V172.82H50.2423V150.486H50.2379ZM55.073 160.637H58.7627C61.0004 160.637 62.5811 159.776 62.5811 157.496C62.5811 155.216 60.9117 154.333 58.8648 154.333H55.073V160.637Z" fill="white"/>
<path d="M103.562 172.825H100.019C99.8327 172.137 99.7128 171.369 99.6507 170.624C98.4119 172.292 96.2274 173.202 93.1239 173.202C86.637 173.202 83.0096 168.304 83.0096 161.942C83.0096 155.229 86.9167 150.171 93.963 150.171C99.7128 150.171 103.101 153.414 103.642 157.221H98.8071C98.3498 155.726 97.1687 153.956 93.8964 153.956C89.3055 153.956 88.0001 157.793 88.0001 161.729C88.0001 165.664 89.4964 169.355 93.9275 169.355C98.0612 169.355 98.8204 166.489 98.8204 164.493V164.289H93.9186V160.331H103.562V172.829V172.825Z" fill="white"/>
<path d="M121.167 150.486H130.415C135.166 150.486 138.39 153.157 138.39 157.403C138.39 162.257 134.713 164.479 130.304 164.479H126.007V172.82H121.171V150.486H121.167ZM126.002 160.637H129.692C131.93 160.637 133.51 159.776 133.51 157.496C133.51 155.216 131.841 154.333 129.794 154.333H126.002V160.637Z" fill="white"/>
</g>
<defs>
<clipPath id="clip0_30_1086">
<rect width="154" height="207" fill="white"/>
</clipPath>
</defs>
</svg>
